<svg width="1500" height="500" viewBox="0 0 1500 500" fill="none" xmlns="http://www.w3.org/2000/svg">
<path fill-rule="evenodd" clip-rule="evenodd" d="M211.546 356.261C167.044 322.53 106.25 266.809 106.25 214.124C106.25 126.111 189.44 93.251 257.5 161.24C325.559 93.251 408.75 126.111 408.75 214.124C408.75 266.81 347.957 322.53 303.454 356.261C283.308 371.532 273.235 379.167 257.5 379.167C241.765 379.167 231.692 371.532 211.546 356.261ZM325.562 173.49C331.827 173.49 336.906 178.512 336.906 184.708V203.407H355.812C362.077 203.407 367.156 208.429 367.156 214.625C367.156 220.821 362.077 225.844 355.812 225.844H336.906V244.542C336.906 250.737 331.827 255.76 325.562 255.76C319.298 255.76 314.219 250.737 314.219 244.542V225.844H295.312C289.048 225.844 283.969 220.821 283.969 214.625C283.969 208.429 289.048 203.407 295.312 203.407H314.219V184.708C314.219 178.512 319.298 173.49 325.562 173.49Z" fill="#252C62"/>
<path d="M436.76 305V180.08H453.68V305H436.76ZM517.4 305V180.08H534.32V305H517.4ZM448.28 248.12V232.64H521.54V248.12H448.28ZM600.57 306.8C592.05 306.8 584.37 304.88 577.53 301.04C570.69 297.08 565.29 291.74 561.33 285.02C557.37 278.3 555.39 270.68 555.39 262.16C555.39 253.76 557.31 246.2 561.15 239.48C565.11 232.76 570.39 227.48 576.99 223.64C583.71 219.68 591.21 217.7 599.49 217.7C607.41 217.7 614.37 219.5 620.37 223.1C626.49 226.7 631.23 231.68 634.59 238.04C638.07 244.4 639.81 251.6 639.81 259.64C639.81 260.84 639.75 262.16 639.63 263.6C639.51 264.92 639.27 266.48 638.91 268.28H566.73V254.78H630.27L624.33 260C624.33 254.24 623.31 249.38 621.27 245.42C619.23 241.34 616.35 238.22 612.63 236.06C608.91 233.78 604.41 232.64 599.13 232.64C593.61 232.64 588.75 233.84 584.55 236.24C580.35 238.64 577.11 242 574.83 246.32C572.55 250.64 571.41 255.74 571.41 261.62C571.41 267.62 572.61 272.9 575.01 277.46C577.41 281.9 580.83 285.38 585.27 287.9C589.71 290.3 594.81 291.5 600.57 291.5C605.37 291.5 609.75 290.66 613.71 288.98C617.79 287.3 621.27 284.78 624.15 281.42L634.59 292.04C630.51 296.84 625.47 300.5 619.47 303.02C613.59 305.54 607.29 306.8 600.57 306.8ZM693.834 306.8C686.034 306.8 678.954 304.88 672.594 301.04C666.234 297.08 661.194 291.74 657.474 285.02C653.874 278.3 652.074 270.74 652.074 262.34C652.074 253.94 653.874 246.38 657.474 239.66C661.194 232.94 666.174 227.6 672.414 223.64C678.774 219.68 685.914 217.7 693.834 217.7C700.314 217.7 706.074 219.08 711.114 221.84C716.274 224.48 720.414 228.2 723.534 233C726.654 237.68 728.394 243.14 728.754 249.38V275.12C728.394 281.24 726.654 286.7 723.534 291.5C720.534 296.3 716.454 300.08 711.294 302.84C706.254 305.48 700.434 306.8 693.834 306.8ZM696.534 291.5C704.574 291.5 711.054 288.8 715.974 283.4C720.894 277.88 723.354 270.86 723.354 262.34C723.354 256.46 722.214 251.36 719.934 247.04C717.774 242.6 714.654 239.18 710.574 236.78C706.494 234.26 701.754 233 696.354 233C690.954 233 686.154 234.26 681.954 236.78C677.874 239.3 674.634 242.78 672.234 247.22C669.954 251.54 668.814 256.52 668.814 262.16C668.814 267.92 669.954 273.02 672.234 277.46C674.634 281.78 677.934 285.2 682.134 287.72C686.334 290.24 691.134 291.5 696.534 291.5ZM722.274 305V281.96L725.334 261.08L722.274 240.38V219.5H738.654V305H722.274ZM762.239 305V176.48H778.439V305H762.239ZM815.282 305V183.68H831.482V305H815.282ZM794.222 234.26V219.5H852.542V234.26H794.222ZM928.891 305V255.14C928.891 248.66 926.851 243.32 922.771 239.12C918.691 234.92 913.411 232.82 906.931 232.82C902.611 232.82 898.771 233.78 895.411 235.7C892.051 237.62 889.411 240.26 887.491 243.62C885.571 246.98 884.611 250.82 884.611 255.14L877.951 251.36C877.951 244.88 879.391 239.12 882.271 234.08C885.151 229.04 889.171 225.08 894.331 222.2C899.491 219.2 905.311 217.7 911.791 217.7C918.271 217.7 923.971 219.14 928.891 222.02C933.931 224.9 937.891 228.92 940.771 234.08C943.651 239.24 945.091 245.18 945.091 251.9V305H928.891ZM868.411 305V176.48H884.611V305H868.411ZM969.905 305V180.08H986.825V305H969.905ZM981.425 250.1V234.62H1046.58V250.1H981.425ZM981.425 195.56V180.08H1049.64V195.56H981.425ZM1104.52 306.8C1096.12 306.8 1088.56 304.82 1081.84 300.86C1075.12 296.9 1069.78 291.56 1065.82 284.84C1061.86 278 1059.88 270.38 1059.88 261.98C1059.88 253.7 1061.86 246.26 1065.82 239.66C1069.78 232.94 1075.12 227.6 1081.84 223.64C1088.56 219.68 1096.12 217.7 1104.52 217.7C1112.8 217.7 1120.3 219.68 1127.02 223.64C1133.86 227.48 1139.26 232.76 1143.22 239.48C1147.18 246.2 1149.16 253.7 1149.16 261.98C1149.16 270.38 1147.18 278 1143.22 284.84C1139.26 291.56 1133.86 296.9 1127.02 300.86C1120.3 304.82 1112.8 306.8 1104.52 306.8ZM1104.52 291.14C1109.92 291.14 1114.72 289.88 1118.92 287.36C1123.12 284.84 1126.42 281.42 1128.82 277.1C1131.22 272.66 1132.42 267.62 1132.42 261.98C1132.42 256.46 1131.16 251.54 1128.64 247.22C1126.24 242.9 1122.94 239.54 1118.74 237.14C1114.66 234.62 1109.92 233.36 1104.52 233.36C1099.12 233.36 1094.32 234.62 1090.12 237.14C1085.92 239.54 1082.62 242.9 1080.22 247.22C1077.82 251.54 1076.62 256.46 1076.62 261.98C1076.62 267.62 1077.82 272.66 1080.22 277.1C1082.62 281.42 1085.92 284.84 1090.12 287.36C1094.32 289.88 1099.12 291.14 1104.52 291.14ZM1167.42 305V219.5H1183.62V305H1167.42ZM1183.62 256.22L1177.5 253.52C1177.5 242.6 1180.02 233.9 1185.06 227.42C1190.1 220.94 1197.36 217.7 1206.84 217.7C1211.16 217.7 1215.06 218.48 1218.54 220.04C1222.02 221.48 1225.26 223.94 1228.26 227.42L1217.64 238.4C1215.84 236.48 1213.86 235.1 1211.7 234.26C1209.54 233.42 1207.02 233 1204.14 233C1198.14 233 1193.22 234.92 1189.38 238.76C1185.54 242.6 1183.62 248.42 1183.62 256.22ZM1272.31 342.62C1263.55 342.62 1255.75 341 1248.91 337.76C1242.19 334.52 1236.79 329.96 1232.71 324.08L1243.15 313.46C1246.63 317.9 1250.77 321.26 1255.57 323.54C1260.37 325.94 1266.07 327.14 1272.67 327.14C1281.43 327.14 1288.33 324.8 1293.37 320.12C1298.53 315.56 1301.11 309.38 1301.11 301.58V280.34L1303.99 261.08L1301.11 242V219.5H1317.31V301.58C1317.31 309.74 1315.39 316.88 1311.55 323C1307.83 329.12 1302.55 333.92 1295.71 337.4C1288.99 340.88 1281.19 342.62 1272.31 342.62ZM1272.31 303.56C1264.51 303.56 1257.49 301.7 1251.25 297.98C1245.13 294.26 1240.27 289.16 1236.67 282.68C1233.07 276.08 1231.27 268.7 1231.27 260.54C1231.27 252.38 1233.07 245.12 1236.67 238.76C1240.27 232.28 1245.13 227.18 1251.25 223.46C1257.49 219.62 1264.51 217.7 1272.31 217.7C1279.03 217.7 1284.97 219.02 1290.13 221.66C1295.29 224.3 1299.37 228.02 1302.37 232.82C1305.49 237.5 1307.17 243.02 1307.41 249.38V272.06C1307.05 278.3 1305.31 283.82 1302.19 288.62C1299.19 293.3 1295.11 296.96 1289.95 299.6C1284.79 302.24 1278.91 303.56 1272.31 303.56ZM1275.55 288.26C1280.83 288.26 1285.45 287.12 1289.41 284.84C1293.49 282.56 1296.61 279.38 1298.77 275.3C1300.93 271.1 1302.01 266.24 1302.01 260.72C1302.01 255.2 1300.87 250.4 1298.59 246.32C1296.43 242.12 1293.37 238.88 1289.41 236.6C1285.45 234.2 1280.77 233 1275.37 233C1269.97 233 1265.23 234.2 1261.15 236.6C1257.07 238.88 1253.83 242.12 1251.43 246.32C1249.15 250.4 1248.01 255.14 1248.01 260.54C1248.01 265.94 1249.15 270.74 1251.43 274.94C1253.83 279.14 1257.07 282.44 1261.15 284.84C1265.35 287.12 1270.15 288.26 1275.55 288.26ZM1380.69 306.8C1372.17 306.8 1364.49 304.88 1357.65 301.04C1350.81 297.08 1345.41 291.74 1341.45 285.02C1337.49 278.3 1335.51 270.68 1335.51 262.16C1335.51 253.76 1337.43 246.2 1341.27 239.48C1345.23 232.76 1350.51 227.48 1357.11 223.64C1363.83 219.68 1371.33 217.7 1379.61 217.7C1387.53 217.7 1394.49 219.5 1400.49 223.1C1406.61 226.7 1411.35 231.68 1414.71 238.04C1418.19 244.4 1419.93 251.6 1419.93 259.64C1419.93 260.84 1419.87 262.16 1419.75 263.6C1419.63 264.92 1419.39 266.48 1419.03 268.28H1346.85V254.78H1410.39L1404.45 260C1404.45 254.24 1403.43 249.38 1401.39 245.42C1399.35 241.34 1396.47 238.22 1392.75 236.06C1389.03 233.78 1384.53 232.64 1379.25 232.64C1373.73 232.64 1368.87 233.84 1364.67 236.24C1360.47 238.64 1357.23 242 1354.95 246.32C1352.67 250.64 1351.53 255.74 1351.53 261.62C1351.53 267.62 1352.73 272.9 1355.13 277.46C1357.53 281.9 1360.95 285.38 1365.39 287.9C1369.83 290.3 1374.93 291.5 1380.69 291.5C1385.49 291.5 1389.87 290.66 1393.83 288.98C1397.91 287.3 1401.39 284.78 1404.27 281.42L1414.71 292.04C1410.63 296.84 1405.59 300.5 1399.59 303.02C1393.71 305.54 1387.41 306.8 1380.69 306.8Z" fill="#252C62"/>
</svg>
